<?xml version="1.0" encoding="utf-8"?>
<svg xmlns="http://www.w3.org/2000/svg" viewBox="0 0 500 500">
  <style>
    path {
      fill: #0E0E0E;
    }
    @media (prefers-color-scheme: dark) {
      path {
        fill: #FFFFFF;
      }
    }
  </style>
  <g transform="matrix(1, 0, 0, 1, 1.224556, 40.936989)">
    <path d="M 280.178 -0.191 C 283.992 -0.087 287.811 -0.155 291.624 -0.166 C 305.792 -0.202 319.962 -0.927 330.794 10.044 C 335.451 14.76 338.329 20.782 339.424 27.299 C 340.716 35 340.085 43.407 340.074 51.219 L 340.009 91.139 L 340.089 233.904 C 356.275 225.853 372.314 220.3 390.39 218.34 C 429.968 214.047 465.785 223.979 496.899 248.924 L 496.892 300.148 C 487.109 292.627 477.619 284.889 466.795 278.85 C 448.855 268.839 429.499 263.441 408.944 263.347 C 343.692 263.05 329.21 311.349 276.217 326.318 C 245.835 334.9 213.783 328.334 186.636 313.251 C 150.481 291.151 134.01 264.326 89.564 253.409 C 89.298 237.794 89.546 222.143 89.613 206.524 C 118.543 209.002 146.259 226.017 168.202 244.254 C 180.573 254.537 192.228 265.459 206.232 273.57 C 225.693 284.841 246.11 288.738 267.978 282.984 C 213.271 226.177 156.983 170.865 101.858 114.46 C 87.53 99.8 72.706 85.544 58.693 70.594 C 59.262 109.238 58.801 147.951 58.803 186.602 L 58.829 404.622 L 0.852 404.556 C 0.376 358.653 0.831 312.694 0.827 266.785 L 0.825 -0.189 C 23.757 0.379 46.806 0.053 69.748 -0.005 L 280.205 211.404 C 279.229 140.937 280.037 70.288 280.178 -0.191 Z" style="stroke-width: 1;"/>
    <path d="M 89.036 290.931 C 124.214 298.803 147.016 319.323 173.67 341.737 C 195.058 359.721 215.68 373.171 244.59 373.855 C 285.77 374.829 303.63 351.545 334.203 330.324 C 351.967 317.996 372.236 309.846 393.879 308.056 C 434.402 304.704 466.391 317.495 496.878 343.397 C 496.949 360.328 496.921 377.261 496.794 394.191 C 492.165 392.325 487.212 386.701 483.21 383.493 C 469.477 372.484 454.891 363.134 437.995 357.751 C 424.602 353.484 410.612 351.821 396.628 353.437 C 356.081 358.122 336.685 388.26 302.967 405.374 C 284.795 414.596 265.951 418.586 245.628 418.303 C 205.63 417.745 178.133 399.982 148.368 375.59 C 137.402 366.605 126.63 357.396 114.269 350.333 C 106.178 345.711 97.792 342.432 88.977 339.528 L 89.036 290.931 Z" style="stroke-width: 1;"/>
  </g>
</svg>
  </g>
</svg>
