<?xml version="1.0" encoding="utf-8" ?>
<svg xmlns="http://www.w3.org/2000/svg" xmlns:xlink="http://www.w3.org/1999/xlink" width="1024" height="1024">
	<path fill="#0E0E0E" d="M542.434 226.553C545.594 226.639 548.758 226.583 551.918 226.574C563.657 226.544 575.398 225.943 584.374 235.034C588.232 238.941 590.617 243.931 591.524 249.331C592.595 255.712 592.072 262.678 592.063 269.151L592.009 302.228L592.075 420.522C605.487 413.851 618.777 409.25 633.754 407.626C666.548 404.069 696.226 412.298 722.007 432.967L722.001 475.411C713.895 469.179 706.031 462.768 697.063 457.764C682.198 449.469 666.16 444.996 649.128 444.918C595.061 444.672 583.061 484.692 539.152 497.095C513.977 504.206 487.419 498.766 464.926 486.268C434.968 467.956 421.32 445.729 384.493 436.684C384.272 423.745 384.478 410.777 384.533 397.835C408.504 399.888 431.47 413.987 449.651 429.098C459.902 437.618 469.559 446.668 481.163 453.389C497.288 462.728 514.205 465.957 532.325 461.189C486.995 414.119 440.355 368.288 394.679 321.552C382.807 309.405 370.524 297.592 358.913 285.205C359.385 317.225 359.003 349.302 359.004 381.328L359.026 561.977L310.987 561.923C310.592 523.888 310.969 485.807 310.966 447.767L310.964 226.555C329.966 227.025 349.064 226.755 368.073 226.707L542.456 401.879C541.647 343.49 542.317 284.951 542.434 226.553Z"/>
	<path fill="#0E0E0E" d="M384.055 467.774C413.203 474.297 432.097 491.299 454.182 509.871C471.904 524.773 488.991 535.917 512.946 536.484C547.067 537.291 561.866 517.998 587.198 500.415C601.917 490.2 618.712 483.447 636.645 481.964C670.222 479.186 696.728 489.785 721.989 511.247C722.048 525.276 722.025 539.306 721.92 553.334C718.084 551.788 713.98 547.128 710.664 544.47C699.285 535.348 687.199 527.601 673.199 523.14C662.102 519.605 650.51 518.227 638.923 519.566C605.326 523.448 589.255 548.42 561.316 562.6C546.259 570.242 530.645 573.548 513.806 573.313C480.664 572.851 457.88 558.133 433.217 537.922C424.131 530.477 415.205 522.846 404.963 516.994C398.259 513.164 391.31 510.447 384.006 508.041L384.055 467.774Z"/>
</svg>
